#!OML:ASF H:\Dans Jumps\Project 1\Capture day 1\Session 1\subject.ASF
:FULLY-SPECIFIED
:DEGREES
354
root 0.25767 20.477 -6.70767 12.3163 3.4142 0.814529
lowerback -2.97812 -0.722015 -1.89307
upperback 2.73614 -0.902671 0.845296
thorax 4.53876 -0.524338 1.87299
lowerneck -7.70557 -0.148716 -2.56762
upperneck 23.535 -0.127075 1.56402
head 8.58251 -0.123456 0.951561
rclavicle 3.18055e-015 6.36111e-015
rhumerus -21.1019 -7.98935 -84.7589
rradius 29.7323
rwrist 29.0165
rhand -19.1711 -25.806
rfingers 7.12502
rthumb 7.14 -55.6656
lclavicle 3.18055e-015 6.36111e-015
lhumerus -15.0022 -0.468268 88.7042
lradius 20.9157
lwrist 12.6294
lhand -28.2622 -10.2758
lfingers 7.12502
lthumb -1.63918 19.6977
rfemur -15.8528 -4.34481 17.2617
rtibia 45.699
rfoot 20.1901 -6.26648
rtoes 22.7603
lfemur -18.6514 4.84844 -16.1328
ltibia 43.2192
lfoot 24.1524 -2.39421
ltoes 2.88306
355
root 0.251931 20.6057 -6.56957 11.7914 3.40064 0.732084
lowerback -2.00503 -0.685926 -1.88268
upperback 2.9566 -0.870836 0.856888
thorax 4.21378 -0.507117 1.89039
lowerneck -8.10366 -0.190786 -2.52809
upperneck 23.613 -0.177149 1.54125
head 8.68437 -0.145013 0.93346
rclavicle -8.34896e-015 7.95139e-016
rhumerus -21.0417 -8.37517 -84.6614
rradius 29.5155
rwrist 29.157
rhand -19.1348 -25.9043
rfingers 7.12502
rthumb 7.17507 -55.7627
lclavicle -8.34896e-015 7.95139e-016
lhumerus -14.9835 -0.0335037 88.6157
lradius 20.9655
lwrist 12.9658
lhand -28.2948 -10.4128
lfingers 7.12502
lthumb -1.67059 19.5604
rfemur -16.8874 -4.35963 17.3856
rtibia 48.0158
rfoot 19.4373 -6.01491
rtoes 22.7775
lfemur -19.3711 5.22575 -16.189
ltibia 44.3936
lfoot 23.5347 -2.00127
ltoes 3.27594
356
root 0.245532 20.7236 -6.43053 11.1864 3.38435 0.66164
lowerback -0.929526 -0.649751 -1.89277
upperback 3.1938 -0.839229 0.860426
thorax 3.84896 -0.490156 1.91144
lowerneck -8.491 -0.228108 -2.48251
upperneck 23.6874 -0.224693 1.52838
head 8.78315 -0.163861 0.917666
rclavicle -5.46658e-015 3.97569e-016
rhumerus -21.0134 -8.70278 -84.5633
rradius 29.2716
rwrist 29.3019
rhand -19.1585 -25.9904
rfingers 7.12502
rthumb 7.15216 -55.8495
lclavicle -5.46658e-015 3.97569e-016
lhumerus -14.9867 0.351469 88.5131
lradius 20.9713
lwrist 13.2542
lhand -28.358 -10.5648
lfingers 7.12502
lthumb -1.73165 19.408
rfemur -17.7919 -4.44032 17.4956
rtibia 50.0715
rfoot 18.5033 -5.67847
rtoes 22.469
lfemur -19.9188 5.58883 -16.2503
ltibia 45.2545
lfoot 22.7875 -1.73769
ltoes 3.48689
357
root 0.238475 20.8298 -6.28904 10.5565 3.37864 0.605342
lowerback 0.171532 -0.618655 -1.92608
upperback 3.42423 -0.814362 0.858679
thorax 3.46433 -0.476761 1.93967
lowerneck -8.85016 -0.264337 -2.44129
upperneck 23.7812 -0.275267 1.53266
head 8.88368 -0.18287 0.908024
rclavicle -6.11263e-015 3.18055e-015
rhumerus -21.0252 -8.96697 -84.4582
rradius 28.996
rwrist 29.4751
rhand -19.2171 -26.0646
rfingers 7.12502
rthumb 7.09556 -55.9256
lclavicle -6.11263e-015 3.18055e-015
lhumerus -15.0124 0.700281 88.3953
lradius 20.9056
lwrist 13.3966
lhand -28.4368 -10.704
lfingers 7.12502
lthumb -1.80782 19.268
rfemur -18.6045 -4.58768 17.5957
rtibia 51.8214
rfoot 17.447 -5.28118
rtoes 21.8386
lfemur -20.3517 5.91923 -16.3189
ltibia 45.8098
lfoot 21.9833 -1.60538
ltoes 3.55717
358
root 0.230687 20.9239 -6.14434 9.96969 3.3971 0.55999
lowerback 1.20665 -0.597574 -1.97745
upperback 3.63037 -0.802291 0.854234
thorax 3.09395 -0.469992 1.97417
lowerneck -9.1825 -0.300083 -2.40827
upperneck 23.9162 -0.329999 1.5579
head 8.99383 -0.202519 0.90655
rclavicle -1.96797e-014 -3.57812e-015
rhumerus -21.0674 -9.1674 -84.3473
rradius 28.6877
rwrist 29.6777
rhand -19.2892 -26.1437
rfingers 7.12502
rthumb 7.02599 -56.0071
lclavicle -1.96797e-014 -3.57812e-015
lhumerus -15.0488 1.02866 88.2596
lradius 20.7473
lwrist 13.3201
lhand -28.5179 -10.8545
lfingers 7.12502
lthumb -1.8861 19.1169
rfemur -19.378 -4.79124 17.6984
rtibia 53.2339
rfoot 16.3491 -4.88062
rtoes 21.0957
lfemur -20.7528 6.20236 -16.3946
ltibia 46.0864
lfoot 21.1661 -1.60755
ltoes 3.56117
359
root 0.222415 21.0058 -5.9959 9.47443 3.44848 0.513324
lowerback 2.12436 -0.588611 -2.03085
upperback 3.79096 -0.805577 0.852287
thorax 2.74474 -0.470619 2.01131
lowerneck -9.48803 -0.332934 -2.37518
upperneck 24.1101 -0.384544 1.59288
head 9.11984 -0.221172 0.908618
rclavicle -1.39149e-015 -1.03368e-014
rhumerus -21.1527 -9.31482 -84.2234
rradius 28.3555
rwrist 29.9306
rhand -19.3762 -26.2129
rfingers 7.12502
rthumb 6.94198 -56.0791
lclavicle -1.39149e-015 -1.03368e-014
lhumerus -15.0968 1.33632 88.1086
lradius 20.4969
lwrist 13.0166
lhand -28.5845 -10.9462
lfingers 7.12502
lthumb -1.9504 19.0247
rfemur -20.1527 -5.03912 17.8232
rtibia 54.2882
rfoot 15.2613 -4.50532
rtoes 20.323
lfemur -21.1869 6.43455 -16.4707
ltibia 46.1171
lfoot 20.3674 -1.73265
ltoes 3.51993
360
root 0.2139 21.0754 -5.84342 9.10593 3.53303 0.454393
lowerback 2.87399 -0.590152 -2.07326
upperback 3.90262 -0.820933 0.856309
thorax 2.441 -0.476973 2.04723
lowerneck -9.7558 -0.361833 -2.33406
upperneck 24.3453 -0.437556 1.63081
head 9.25361 -0.238093 0.910632
rclavicle -5.96354e-016 8.15017e-015
rhumerus -21.266 -9.43319 -84.0836
rradius 28
rwrist 30.2387
rhand -19.4453 -26.2827
rfingers 7.12502
rthumb 6.87534 -56.1511
lclavicle -5.96354e-016 8.15017e-015
lhumerus -15.145 1.62464 87.9461
lradius 20.167
lwrist 12.5181
lhand -28.623 -10.9966
lfingers 7.12502
lthumb -1.98759 18.9739
rfemur -20.9564 -5.31331 17.9867
rtibia 54.9701
rfoot 14.2337 -4.1637
rtoes 19.5903
lfemur -21.7031 6.62076 -16.5432
ltibia 45.9326
lfoot 19.6225 -1.98337
ltoes 3.47083
361
root 0.205325 21.1324 -5.68712 8.88435 3.64752 0.377516
lowerback 3.43596 -0.599197 -2.09717
upperback 3.96158 -0.84343 0.869021
thorax 2.18895 -0.486536 2.08035
lowerneck -9.99349 -0.387686 -2.28646
upperneck 24.6192 -0.489991 1.6721
head 9.39588 -0.253717 0.912926
rclavicle 2.38542e-015 -4.07509e-015
rhumerus -21.404 -9.54588 -83.9203
rradius 27.6321
rwrist 30.5937
rhand -19.501 -26.3478
rfingers 7.12502
rthumb 6.82156 -56.2179
lclavicle 2.38542e-015 -4.07509e-015
lhumerus -15.1942 1.88567 87.7791
lradius 19.7904
lwrist 11.9046
lhand -28.6142 -10.9995
lfingers 7.12502
lthumb -1.97912 18.9711
rfemur -21.8072 -5.59214 18.198
rtibia 55.2726
rfoot 13.3176 -3.86894
rtoes 18.998
lfemur -22.3301 6.76853 -16.611
ltibia 45.5567
lfoot 18.9563 -2.34592
ltoes 3.44078
362
root 0.197222 21.1769 -5.52683 8.80448 3.78415 0.288476
lowerback 3.81154 -0.612211 -2.10469
upperback 3.97427 -0.867904 0.889596
thorax 1.9938 -0.496964 2.11079
lowerneck -10.1955 -0.411638 -2.23107
upperneck 24.9071 -0.542014 1.70998
head 9.53704 -0.268623 0.912794
rclavicle 4.52235e-015 -1.49089e-015
rhumerus -21.5676 -9.67044 -83.7284
rradius 27.2694
rwrist 30.9659
rhand -19.5405 -26.4055
rfingers 7.12502
rthumb 6.78337 -56.2769
lclavicle 4.52235e-015 -1.49089e-015
lhumerus -15.2496 2.12001 87.616
lradius 19.4039
lwrist 11.2723
lhand -28.5602 -10.9917
lfingers 7.12502
lthumb -1.927 18.9794
rfemur -22.6915 -5.8632 18.4464
rtibia 55.1932
rfoot 12.5443 -3.6139
rtoes 18.5572
lfemur -23.0598 6.88263 -16.6842
ltibia 45.0069
lfoot 18.3839 -2.79091
ltoes 3.43532
363
root 0.189661 21.2084 -5.36281 8.83907 3.92883 0.196146
lowerback 4.02546 -0.622961 -2.10732
upperback 3.95613 -0.886463 0.915756
thorax 1.85704 -0.504778 2.14248
lowerneck -10.3604 -0.436847 -2.16972
upperneck 25.1833 -0.597457 1.74451
head 9.66775 -0.284685 0.909968
rclavicle -4.44781e-015 6.95746e-016
rhumerus -21.7455 -9.8393 -83.5034
rradius 26.9186
rwrist 31.3404
rhand -19.572 -26.4532
rfingers 7.12502
rthumb 6.75295 -56.3255
lclavicle -4.44781e-015 6.95746e-016
lhumerus -15.3143 2.32521 87.4628
lradius 19.0514
lwrist 10.7215
lhand -28.4562 -10.971
lfingers 7.12502
lthumb -1.8265 19.0009
rfemur -23.5793 -6.10551 18.7174
rtibia 54.7386
rfoot 11.9388 -3.40093
rtoes 18.2592
lfemur -23.859 6.97265 -16.7706
ltibia 44.2944
lfoot 17.9055 -3.29047
ltoes 3.43402
364
root 0.182904 21.2263 -5.19502 8.95786 4.07256 0.101544
lowerback 4.10155 -0.628085 -2.10393
upperback 3.92582 -0.894935 0.945943
thorax 1.78418 -0.508116 2.17308
lowerneck -10.5051 -0.463816 -2.11077
upperneck 25.434 -0.656881 1.78406
head 9.78624 -0.301948 0.90864
rclavicle 1.91579e-014 -4.27387e-015
rhumerus -21.9328 -10.0575 -83.2487
rradius 26.6002
rwrist 31.6776
rhand -19.6042 -26.5003
rfingers 7.12502
rthumb 6.72186 -56.3736
lclavicle 1.91579e-014 -4.27387e-015
lhumerus -15.3823 2.49323 87.3233
lradius 18.7616
lwrist 10.3422
lhand -28.3064 -10.9175
lfingers 7.12502
lthumb -1.68184 19.0556
rfemur -24.4335 -6.30961 19.0022
rtibia 53.9223
rfoot 11.5067 -3.23504
rtoes 18.118
lfemur -24.689 7.03993 -16.8667
ltibia 43.43
lfoot 17.509 -3.811
ltoes 3.45113
